<svg xmlns="http://www.w3.org/2000/svg" xmlns:xlink="http://www.w3.org/1999/xlink" width="253" height="258" viewBox="0 0 253 258">
  <defs>
    <path id="initialblock-b-density-a" d="M15,0 C23.283,0 30,6.717 30,15 C30,23.283 23.283,30 15,30 C6.717,30 0,23.283 0,15 C0,6.717 6.717,0 15,0 Z M15,32.5714286 C23.283,32.5714286 30,39.2884286 30,47.5714286 C30,55.8544286 23.283,62.5714286 15,62.5714286 C6.717,62.5714286 0,55.8544286 0,47.5714286 C0,39.2884286 6.717,32.5714286 15,32.5714286 Z M15,65.1428571 C23.283,65.1428571 30,71.8598571 30,80.1428571 C30,88.4258571 23.283,95.1428571 15,95.1428571 C6.717,95.1428571 0,88.4258571 0,80.1428571 C0,71.8598571 6.717,65.1428571 15,65.1428571 Z M15,97.7142857 C23.283,97.7142857 30,104.431286 30,112.714286 C30,120.997286 23.283,127.714286 15,127.714286 C6.717,127.714286 0,120.997286 0,112.714286 C0,104.431286 6.717,97.7142857 15,97.7142857 Z M15,130.285714 C23.283,130.285714 30,137.002714 30,145.285714 C30,153.568714 23.283,160.285714 15,160.285714 C6.717,160.285714 0,153.568714 0,145.285714 C0,137.002714 6.717,130.285714 15,130.285714 Z M15,162.857143 C23.283,162.857143 30,169.574143 30,177.857143 C30,186.140143 23.283,192.857143 15,192.857143 C6.717,192.857143 0,186.140143 0,177.857143 C0,169.574143 6.717,162.857143 15,162.857143 Z M46.8571429,0 C55.1401429,0 61.8571429,6.717 61.8571429,15 C61.8571429,23.283 55.1401429,30 46.8571429,30 C38.5741429,30 31.8571429,23.283 31.8571429,15 C31.8571429,6.717 38.5741429,0 46.8571429,0 Z M46.8571429,32.5714286 C55.1401429,32.5714286 61.8571429,39.2884286 61.8571429,47.5714286 C61.8571429,55.8544286 55.1401429,62.5714286 46.8571429,62.5714286 C38.5741429,62.5714286 31.8571429,55.8544286 31.8571429,47.5714286 C31.8571429,39.2884286 38.5741429,32.5714286 46.8571429,32.5714286 Z M46.8571429,65.1428571 C55.1401429,65.1428571 61.8571429,71.8598571 61.8571429,80.1428571 C61.8571429,88.4258571 55.1401429,95.1428571 46.8571429,95.1428571 C38.5741429,95.1428571 31.8571429,88.4258571 31.8571429,80.1428571 C31.8571429,71.8598571 38.5741429,65.1428571 46.8571429,65.1428571 Z M46.8571429,98 C55.1401429,98 61.8571429,104.717 61.8571429,113 C61.8571429,121.283 55.1401429,128 46.8571429,128 C38.5741429,128 31.8571429,121.283 31.8571429,113 C31.8571429,104.717 38.5741429,98 46.8571429,98 Z M46.8571429,130 C55.1401429,130 61.8571429,136.717 61.8571429,145 C61.8571429,153.283 55.1401429,160 46.8571429,160 C38.5741429,160 31.8571429,153.283 31.8571429,145 C31.8571429,136.717 38.5741429,130 46.8571429,130 Z M46.8571429,162.857143 C55.1401429,162.857143 61.8571429,169.574143 61.8571429,177.857143 C61.8571429,186.140143 55.1401429,192.857143 46.8571429,192.857143 C38.5741429,192.857143 31.8571429,186.140143 31.8571429,177.857143 C31.8571429,169.574143 38.5741429,162.857143 46.8571429,162.857143 Z M78.7142857,0 C86.9972857,0 93.7142857,6.717 93.7142857,15 C93.7142857,23.283 86.9972857,30 78.7142857,30 C70.4312857,30 63.7142857,23.283 63.7142857,15 C63.7142857,6.717 70.4312857,0 78.7142857,0 Z M78.7142857,32.5714286 C86.9972857,32.5714286 93.7142857,39.2884286 93.7142857,47.5714286 C93.7142857,55.8544286 86.9972857,62.5714286 78.7142857,62.5714286 C70.4312857,62.5714286 63.7142857,55.8544286 63.7142857,47.5714286 C63.7142857,39.2884286 70.4312857,32.5714286 78.7142857,32.5714286 Z M78.7142857,65.1428571 C86.9972857,65.1428571 93.7142857,71.8598571 93.7142857,80.1428571 C93.7142857,88.4258571 86.9972857,95.1428571 78.7142857,95.1428571 C70.4312857,95.1428571 63.7142857,88.4258571 63.7142857,80.1428571 C63.7142857,71.8598571 70.4312857,65.1428571 78.7142857,65.1428571 Z M78.7142857,98 C86.9972857,98 93.7142857,104.717 93.7142857,113 C93.7142857,121.283 86.9972857,128 78.7142857,128 C70.4312857,128 63.7142857,121.283 63.7142857,113 C63.7142857,104.717 70.4312857,98 78.7142857,98 Z M78.7142857,130 C86.9972857,130 93.7142857,136.717 93.7142857,145 C93.7142857,153.283 86.9972857,160 78.7142857,160 C70.4312857,160 63.7142857,153.283 63.7142857,145 C63.7142857,136.717 70.4312857,130 78.7142857,130 Z M78.7142857,162.857143 C86.9972857,162.857143 93.7142857,169.574143 93.7142857,177.857143 C93.7142857,186.140143 86.9972857,192.857143 78.7142857,192.857143 C70.4312857,192.857143 63.7142857,186.140143 63.7142857,177.857143 C63.7142857,169.574143 70.4312857,162.857143 78.7142857,162.857143 Z M110.571429,0 C118.854429,0 125.571429,6.717 125.571429,15 C125.571429,23.283 118.854429,30 110.571429,30 C102.288429,30 95.5714286,23.283 95.5714286,15 C95.5714286,6.717 102.288429,0 110.571429,0 Z M110.571429,32.5714286 C118.854429,32.5714286 125.571429,39.2884286 125.571429,47.5714286 C125.571429,55.8544286 118.854429,62.5714286 110.571429,62.5714286 C102.288429,62.5714286 95.5714286,55.8544286 95.5714286,47.5714286 C95.5714286,39.2884286 102.288429,32.5714286 110.571429,32.5714286 Z M110.571429,65.1428571 C118.854429,65.1428571 125.571429,71.8598571 125.571429,80.1428571 C125.571429,88.4258571 118.854429,95.1428571 110.571429,95.1428571 C102.288429,95.1428571 95.5714286,88.4258571 95.5714286,80.1428571 C95.5714286,71.8598571 102.288429,65.1428571 110.571429,65.1428571 Z M110.571429,98 C118.854429,98 125.571429,104.717 125.571429,113 C125.571429,121.283 118.854429,128 110.571429,128 C102.288429,128 95.5714286,121.283 95.5714286,113 C95.5714286,104.717 102.288429,98 110.571429,98 Z M110.571429,130 C118.854429,130 125.571429,136.717 125.571429,145 C125.571429,153.283 118.854429,160 110.571429,160 C102.288429,160 95.5714286,153.283 95.5714286,145 C95.5714286,136.717 102.288429,130 110.571429,130 Z M110.571429,162.857143 C118.854429,162.857143 125.571429,169.574143 125.571429,177.857143 C125.571429,186.140143 118.854429,192.857143 110.571429,192.857143 C102.288429,192.857143 95.5714286,186.140143 95.5714286,177.857143 C95.5714286,169.574143 102.288429,162.857143 110.571429,162.857143 Z M142.428571,0 C150.711571,0 157.428571,6.717 157.428571,15 C157.428571,23.283 150.711571,30 142.428571,30 C134.145571,30 127.428571,23.283 127.428571,15 C127.428571,6.717 134.145571,0 142.428571,0 Z M142.428571,32.5714286 C150.711571,32.5714286 157.428571,39.2884286 157.428571,47.5714286 C157.428571,55.8544286 150.711571,62.5714286 142.428571,62.5714286 C134.145571,62.5714286 127.428571,55.8544286 127.428571,47.5714286 C127.428571,39.2884286 134.145571,32.5714286 142.428571,32.5714286 Z M142.428571,65.1428571 C150.711571,65.1428571 157.428571,71.8598571 157.428571,80.1428571 C157.428571,88.4258571 150.711571,95.1428571 142.428571,95.1428571 C134.145571,95.1428571 127.428571,88.4258571 127.428571,80.1428571 C127.428571,71.8598571 134.145571,65.1428571 142.428571,65.1428571 Z M142.428571,98 C150.711571,98 157.428571,104.717 157.428571,113 C157.428571,121.283 150.711571,128 142.428571,128 C134.145571,128 127.428571,121.283 127.428571,113 C127.428571,104.717 134.145571,98 142.428571,98 Z M142.428571,130 C150.711571,130 157.428571,136.717 157.428571,145 C157.428571,153.283 150.711571,160 142.428571,160 C134.145571,160 127.428571,153.283 127.428571,145 C127.428571,136.717 134.145571,130 142.428571,130 Z M142.428571,162.857143 C150.711571,162.857143 157.428571,169.574143 157.428571,177.857143 C157.428571,186.140143 150.711571,192.857143 142.428571,192.857143 C134.145571,192.857143 127.428571,186.140143 127.428571,177.857143 C127.428571,169.574143 134.145571,162.857143 142.428571,162.857143 Z M174.285714,0 C182.568714,0 189.285714,6.717 189.285714,15 C189.285714,23.283 182.568714,30 174.285714,30 C166.002714,30 159.285714,23.283 159.285714,15 C159.285714,6.717 166.002714,0 174.285714,0 Z M174.285714,32.5714286 C182.568714,32.5714286 189.285714,39.2884286 189.285714,47.5714286 C189.285714,55.8544286 182.568714,62.5714286 174.285714,62.5714286 C166.002714,62.5714286 159.285714,55.8544286 159.285714,47.5714286 C159.285714,39.2884286 166.002714,32.5714286 174.285714,32.5714286 Z M174.285714,65.1428571 C182.568714,65.1428571 189.285714,71.8598571 189.285714,80.1428571 C189.285714,88.4258571 182.568714,95.1428571 174.285714,95.1428571 C166.002714,95.1428571 159.285714,88.4258571 159.285714,80.1428571 C159.285714,71.8598571 166.002714,65.1428571 174.285714,65.1428571 Z M174.285714,98 C182.568714,98 189.285714,104.717 189.285714,113 C189.285714,121.283 182.568714,128 174.285714,128 C166.002714,128 159.285714,121.283 159.285714,113 C159.285714,104.717 166.002714,98 174.285714,98 Z M174.285714,130 C182.568714,130 189.285714,136.717 189.285714,145 C189.285714,153.283 182.568714,160 174.285714,160 C166.002714,160 159.285714,153.283 159.285714,145 C159.285714,136.717 166.002714,130 174.285714,130 Z M174.285714,162.857143 C182.568714,162.857143 189.285714,169.574143 189.285714,177.857143 C189.285714,186.140143 182.568714,192.857143 174.285714,192.857143 C166.002714,192.857143 159.285714,186.140143 159.285714,177.857143 C159.285714,169.574143 166.002714,162.857143 174.285714,162.857143 Z M15,195.428571 C23.283,195.428571 30,202.145571 30,210.428571 C30,218.711571 23.283,225.428571 15,225.428571 C6.717,225.428571 0,218.711571 0,210.428571 C0,202.145571 6.717,195.428571 15,195.428571 Z M46.8571429,195.428571 C55.1401429,195.428571 61.8571429,202.145571 61.8571429,210.428571 C61.8571429,218.711571 55.1401429,225.428571 46.8571429,225.428571 C38.5741429,225.428571 31.8571429,218.711571 31.8571429,210.428571 C31.8571429,202.145571 38.5741429,195.428571 46.8571429,195.428571 Z M78.7142857,195.428571 C86.9972857,195.428571 93.7142857,202.145571 93.7142857,210.428571 C93.7142857,218.711571 86.9972857,225.428571 78.7142857,225.428571 C70.4312857,225.428571 63.7142857,218.711571 63.7142857,210.428571 C63.7142857,202.145571 70.4312857,195.428571 78.7142857,195.428571 Z M110.571429,195.428571 C118.854429,195.428571 125.571429,202.145571 125.571429,210.428571 C125.571429,218.711571 118.854429,225.428571 110.571429,225.428571 C102.288429,225.428571 95.5714286,218.711571 95.5714286,210.428571 C95.5714286,202.145571 102.288429,195.428571 110.571429,195.428571 Z M142.428571,195.428571 C150.711571,195.428571 157.428571,202.145571 157.428571,210.428571 C157.428571,218.711571 150.711571,225.428571 142.428571,225.428571 C134.145571,225.428571 127.428571,218.711571 127.428571,210.428571 C127.428571,202.145571 134.145571,195.428571 142.428571,195.428571 Z M174.285714,195.428571 C182.568714,195.428571 189.285714,202.145571 189.285714,210.428571 C189.285714,218.711571 182.568714,225.428571 174.285714,225.428571 C166.002714,225.428571 159.285714,218.711571 159.285714,210.428571 C159.285714,202.145571 166.002714,195.428571 174.285714,195.428571 Z M15,228 C23.283,228 30,234.717 30,243 C30,251.283 23.283,258 15,258 C6.717,258 0,251.283 0,243 C0,234.717 6.717,228 15,228 Z M46.8571429,228 C55.1401429,228 61.8571429,234.717 61.8571429,243 C61.8571429,251.283 55.1401429,258 46.8571429,258 C38.5741429,258 31.8571429,251.283 31.8571429,243 C31.8571429,234.717 38.5741429,228 46.8571429,228 Z M78.7142857,228 C86.9972857,228 93.7142857,234.717 93.7142857,243 C93.7142857,251.283 86.9972857,258 78.7142857,258 C70.4312857,258 63.7142857,251.283 63.7142857,243 C63.7142857,234.717 70.4312857,228 78.7142857,228 Z M110.571429,228 C118.854429,228 125.571429,234.717 125.571429,243 C125.571429,251.283 118.854429,258 110.571429,258 C102.288429,258 95.5714286,251.283 95.5714286,243 C95.5714286,234.717 102.288429,228 110.571429,228 Z M142.428571,228 C150.711571,228 157.428571,234.717 157.428571,243 C157.428571,251.283 150.711571,258 142.428571,258 C134.145571,258 127.428571,251.283 127.428571,243 C127.428571,234.717 134.145571,228 142.428571,228 Z M174.285714,228 C182.568714,228 189.285714,234.717 189.285714,243 C189.285714,251.283 182.568714,258 174.285714,258 C166.002714,258 159.285714,251.283 159.285714,243 C159.285714,234.717 166.002714,228 174.285714,228 Z M206.142857,0 C214.425857,0 221.142857,6.717 221.142857,15 C221.142857,23.283 214.425857,30 206.142857,30 C197.859857,30 191.142857,23.283 191.142857,15 C191.142857,6.717 197.859857,0 206.142857,0 Z M206.142857,32.5714286 C214.425857,32.5714286 221.142857,39.2884286 221.142857,47.5714286 C221.142857,55.8544286 214.425857,62.5714286 206.142857,62.5714286 C197.859857,62.5714286 191.142857,55.8544286 191.142857,47.5714286 C191.142857,39.2884286 197.859857,32.5714286 206.142857,32.5714286 Z M206.142857,65.1428571 C214.425857,65.1428571 221.142857,71.8598571 221.142857,80.1428571 C221.142857,88.4258571 214.425857,95.1428571 206.142857,95.1428571 C197.859857,95.1428571 191.142857,88.4258571 191.142857,80.1428571 C191.142857,71.8598571 197.859857,65.1428571 206.142857,65.1428571 Z M206.142857,98 C214.425857,98 221.142857,104.717 221.142857,113 C221.142857,121.283 214.425857,128 206.142857,128 C197.859857,128 191.142857,121.283 191.142857,113 C191.142857,104.717 197.859857,98 206.142857,98 Z M206.142857,130 C214.425857,130 221.142857,136.717 221.142857,145 C221.142857,153.283 214.425857,160 206.142857,160 C197.859857,160 191.142857,153.283 191.142857,145 C191.142857,136.717 197.859857,130 206.142857,130 Z M206.142857,162.857143 C214.425857,162.857143 221.142857,169.574143 221.142857,177.857143 C221.142857,186.140143 214.425857,192.857143 206.142857,192.857143 C197.859857,192.857143 191.142857,186.140143 191.142857,177.857143 C191.142857,169.574143 197.859857,162.857143 206.142857,162.857143 Z M206.142857,195.428571 C214.425857,195.428571 221.142857,202.145571 221.142857,210.428571 C221.142857,218.711571 214.425857,225.428571 206.142857,225.428571 C197.859857,225.428571 191.142857,218.711571 191.142857,210.428571 C191.142857,202.145571 197.859857,195.428571 206.142857,195.428571 Z M206.142857,228 C214.425857,228 221.142857,234.717 221.142857,243 C221.142857,251.283 214.425857,258 206.142857,258 C197.859857,258 191.142857,251.283 191.142857,243 C191.142857,234.717 197.859857,228 206.142857,228 Z M238,0 C246.283,0 253,6.717 253,15 C253,23.283 246.283,30 238,30 C229.717,30 223,23.283 223,15 C223,6.717 229.717,0 238,0 Z M238,32.5714286 C246.283,32.5714286 253,39.2884286 253,47.5714286 C253,55.8544286 246.283,62.5714286 238,62.5714286 C229.717,62.5714286 223,55.8544286 223,47.5714286 C223,39.2884286 229.717,32.5714286 238,32.5714286 Z M238,65.1428571 C246.283,65.1428571 253,71.8598571 253,80.1428571 C253,88.4258571 246.283,95.1428571 238,95.1428571 C229.717,95.1428571 223,88.4258571 223,80.1428571 C223,71.8598571 229.717,65.1428571 238,65.1428571 Z M238,98 C246.283,98 253,104.717 253,113 C253,121.283 246.283,128 238,128 C229.717,128 223,121.283 223,113 C223,104.717 229.717,98 238,98 Z M238,130 C246.283,130 253,136.717 253,145 C253,153.283 246.283,160 238,160 C229.717,160 223,153.283 223,145 C223,136.717 229.717,130 238,130 Z M238,162.857143 C246.283,162.857143 253,169.574143 253,177.857143 C253,186.140143 246.283,192.857143 238,192.857143 C229.717,192.857143 223,186.140143 223,177.857143 C223,169.574143 229.717,162.857143 238,162.857143 Z M238,195.428571 C246.283,195.428571 253,202.145571 253,210.428571 C253,218.711571 246.283,225.428571 238,225.428571 C229.717,225.428571 223,218.711571 223,210.428571 C223,202.145571 229.717,195.428571 238,195.428571 Z M238,228 C246.283,228 253,234.717 253,243 C253,251.283 246.283,258 238,258 C229.717,258 223,251.283 223,243 C223,234.717 229.717,228 238,228 Z"/>
  </defs>
  <g fill="none" fill-rule="evenodd">
    <mask id="initialblock-b-density-b" fill="#fff">
      <use xlink:href="#initialblock-b-density-a"/>
    </mask>
    <use fill="#000" fill-rule="nonzero" xlink:href="#initialblock-b-density-a"/>
    <text fill="gold" font-family="Montserrat-Bold, Montserrat" font-size="250" font-weight="bold" mask="url(#initialblock-b-density-b)" style="mix-blend-mode:difference">
      <tspan x="29" y="216">B</tspan>
    </text>
  </g>
</svg>
