<svg xmlns="http://www.w3.org/2000/svg" width="1198" height="463" viewBox="0 0 1198 463">
  <g fill="none" fill-rule="evenodd">
    <path fill="#000" fill-rule="nonzero" d="M15,0 C23.283,0 30,6.717 30,15 C30,23.283 23.283,30 15,30 C6.717,30 0,23.283 0,15 C0,6.717 6.717,0 15,0 Z M15,45 C23.283,45 30,51.717 30,60 C30,68.283 23.283,75 15,75 C6.717,75 0,68.283 0,60 C0,51.717 6.717,45 15,45 Z M15,90 C23.283,90 30,96.717 30,105 C30,113.283 23.283,120 15,120 C6.717,120 0,113.283 0,105 C0,96.717 6.717,90 15,90 Z M15,135 C23.283,135 30,141.717 30,150 C30,158.283 23.283,165 15,165 C6.717,165 0,158.283 0,150 C0,141.717 6.717,135 15,135 Z M15,180 C23.283,180 30,186.717 30,195 C30,203.283 23.283,210 15,210 C6.717,210 0,203.283 0,195 C0,186.717 6.717,180 15,180 Z M15,225 C23.283,225 30,231.717 30,240 C30,248.283 23.283,255 15,255 C6.717,255 0,248.283 0,240 C0,231.717 6.717,225 15,225 Z M60,0 C68.283,0 75,6.717 75,15 C75,23.283 68.283,30 60,30 C51.717,30 45,23.283 45,15 C45,6.717 51.717,0 60,0 Z M60,45 C68.283,45 75,51.717 75,60 C75,68.283 68.283,75 60,75 C51.717,75 45,68.283 45,60 C45,51.717 51.717,45 60,45 Z M60,90 C68.283,90 75,96.717 75,105 C75,113.283 68.283,120 60,120 C51.717,120 45,113.283 45,105 C45,96.717 51.717,90 60,90 Z M60,135 C68.283,135 75,141.717 75,150 C75,158.283 68.283,165 60,165 C51.717,165 45,158.283 45,150 C45,141.717 51.717,135 60,135 Z M60,180 C68.283,180 75,186.717 75,195 C75,203.283 68.283,210 60,210 C51.717,210 45,203.283 45,195 C45,186.717 51.717,180 60,180 Z M60,225 C68.283,225 75,231.717 75,240 C75,248.283 68.283,255 60,255 C51.717,255 45,248.283 45,240 C45,231.717 51.717,225 60,225 Z M105,0 C113.283,0 120,6.717 120,15 C120,23.283 113.283,30 105,30 C96.717,30 90,23.283 90,15 C90,6.717 96.717,0 105,0 Z M105,45 C113.283,45 120,51.717 120,60 C120,68.283 113.283,75 105,75 C96.717,75 90,68.283 90,60 C90,51.717 96.717,45 105,45 Z M105,90 C113.283,90 120,96.717 120,105 C120,113.283 113.283,120 105,120 C96.717,120 90,113.283 90,105 C90,96.717 96.717,90 105,90 Z M105,135 C113.283,135 120,141.717 120,150 C120,158.283 113.283,165 105,165 C96.717,165 90,158.283 90,150 C90,141.717 96.717,135 105,135 Z M105,180 C113.283,180 120,186.717 120,195 C120,203.283 113.283,210 105,210 C96.717,210 90,203.283 90,195 C90,186.717 96.717,180 105,180 Z M105,225 C113.283,225 120,231.717 120,240 C120,248.283 113.283,255 105,255 C96.717,255 90,248.283 90,240 C90,231.717 96.717,225 105,225 Z M150,0 C158.283,0 165,6.717 165,15 C165,23.283 158.283,30 150,30 C141.717,30 135,23.283 135,15 C135,6.717 141.717,0 150,0 Z M150,45 C158.283,45 165,51.717 165,60 C165,68.283 158.283,75 150,75 C141.717,75 135,68.283 135,60 C135,51.717 141.717,45 150,45 Z M150,90 C158.283,90 165,96.717 165,105 C165,113.283 158.283,120 150,120 C141.717,120 135,113.283 135,105 C135,96.717 141.717,90 150,90 Z M150,135 C158.283,135 165,141.717 165,150 C165,158.283 158.283,165 150,165 C141.717,165 135,158.283 135,150 C135,141.717 141.717,135 150,135 Z M150,180 C158.283,180 165,186.717 165,195 C165,203.283 158.283,210 150,210 C141.717,210 135,203.283 135,195 C135,186.717 141.717,180 150,180 Z M150,225 C158.283,225 165,231.717 165,240 C165,248.283 158.283,255 150,255 C141.717,255 135,248.283 135,240 C135,231.717 141.717,225 150,225 Z M195,0 C203.283,0 210,6.717 210,15 C210,23.283 203.283,30 195,30 C186.717,30 180,23.283 180,15 C180,6.717 186.717,0 195,0 Z M195,45 C203.283,45 210,51.717 210,60 C210,68.283 203.283,75 195,75 C186.717,75 180,68.283 180,60 C180,51.717 186.717,45 195,45 Z M195,90 C203.283,90 210,96.717 210,105 C210,113.283 203.283,120 195,120 C186.717,120 180,113.283 180,105 C180,96.717 186.717,90 195,90 Z M195,135 C203.283,135 210,141.717 210,150 C210,158.283 203.283,165 195,165 C186.717,165 180,158.283 180,150 C180,141.717 186.717,135 195,135 Z M195,180 C203.283,180 210,186.717 210,195 C210,203.283 203.283,210 195,210 C186.717,210 180,203.283 180,195 C180,186.717 186.717,180 195,180 Z M195,225 C203.283,225 210,231.717 210,240 C210,248.283 203.283,255 195,255 C186.717,255 180,248.283 180,240 C180,231.717 186.717,225 195,225 Z M240,0 C248.283,0 255,6.717 255,15 C255,23.283 248.283,30 240,30 C231.717,30 225,23.283 225,15 C225,6.717 231.717,0 240,0 Z M240,45 C248.283,45 255,51.717 255,60 C255,68.283 248.283,75 240,75 C231.717,75 225,68.283 225,60 C225,51.717 231.717,45 240,45 Z M240,90 C248.283,90 255,96.717 255,105 C255,113.283 248.283,120 240,120 C231.717,120 225,113.283 225,105 C225,96.717 231.717,90 240,90 Z M240,135 C248.283,135 255,141.717 255,150 C255,158.283 248.283,165 240,165 C231.717,165 225,158.283 225,150 C225,141.717 231.717,135 240,135 Z M240,180 C248.283,180 255,186.717 255,195 C255,203.283 248.283,210 240,210 C231.717,210 225,203.283 225,195 C225,186.717 231.717,180 240,180 Z M240,225 C248.283,225 255,231.717 255,240 C255,248.283 248.283,255 240,255 C231.717,255 225,248.283 225,240 C225,231.717 231.717,225 240,225 Z" transform="translate(466)"/>
    <text fill="#000" font-family="Montserrat-Regular, Montserrat" font-size="118">
      <tspan x="248" y="389">Initial Block</tspan>
    </text>
    <text fill="#000" font-family="Montserrat-Regular, Montserrat" font-size="54">
      <tspan x="158" y="462">Worldclass Blockchain Solutions</tspan>
    </text>
    <path fill="gold" stroke="gold" d="M481,225 C489.283,225 496,231.717 496,240 C496,248.283 489.283,255 481,255 C472.717,255 466,248.283 466,240 C466,231.717 472.717,225 481,225 Z"/>
  </g>
</svg>
